<svg width="600" height="450" viewBox="0 0 600 450" fill="none" xmlns="http://www.w3.org/2000/svg">
<g clip-path="url(#clip0_159_1573)">
<path d="M31.3044 448.995C31.2642 448.774 27.3823 426.692 35.3102 408.352C43.2381 390.013 60.161 381.925 60.331 381.845L61.1044 381.483L61.2872 382.489C61.3273 382.709 65.2092 404.791 57.2813 423.131C49.3537 441.47 32.4306 449.558 32.2605 449.638L31.4867 450L31.3044 448.995ZM60.0438 383.937C56.654 385.756 43.2754 393.717 36.5797 409.206C29.8832 424.697 31.9035 443.016 32.5478 447.546C35.9361 445.732 49.3094 437.783 56.0119 422.277C62.708 406.787 60.6883 388.47 60.0438 383.937Z" fill="#F1F1F1"/>
<path d="M51.2228 416.698C36.976 427.39 31.489 448.627 31.489 448.627C31.489 448.627 49.1009 452.529 63.3477 441.837C77.5946 431.145 83.0815 409.908 83.0815 409.908C83.0815 409.908 65.4697 406.005 51.2228 416.698Z" fill="#5F1E7E"/>
<path d="M266.974 245.293C267.191 243.894 267.16 242.453 266.882 241.071C266.605 239.689 266.087 238.399 265.367 237.294C264.647 236.188 263.741 235.292 262.713 234.671C261.685 234.049 260.561 233.716 259.418 233.695L252.821 212.998L241.76 214.932L251.407 243.996C251.505 246.392 252.305 248.659 253.655 250.368C255.004 252.078 256.809 253.11 258.728 253.27C260.647 253.43 262.546 252.706 264.066 251.236C265.586 249.766 266.62 247.652 266.974 245.293Z" fill="#9F616A"/>
<path d="M246.597 238.021L243.17 227.827L221.814 177.117L222.975 83.2846L223.198 83.2477C236.863 80.9955 246.109 159.539 246.496 162.884L259.99 220.45L263.202 233.139L246.597 238.021Z" fill="white"/>
<path d="M213.782 435.882L224.166 435.881L229.105 385.92L213.78 385.921L213.782 435.882Z" fill="#9F616A"/>
<path d="M211.133 431.653L231.582 431.652H231.583C235.039 431.652 238.354 433.365 240.798 436.413C243.242 439.462 244.615 443.596 244.615 447.908V448.436L211.134 448.437L211.133 431.653Z" fill="#2F2E41"/>
<path d="M118.308 416.147L126.828 423.552L153.78 386.087L141.206 375.157L118.308 416.147Z" fill="#9F616A"/>
<path d="M118.074 410.789L134.851 425.372L134.852 425.373C137.687 427.838 139.622 431.607 140.23 435.851C140.837 440.095 140.069 444.467 138.093 448.004L137.851 448.437L110.381 424.56L118.074 410.789Z" fill="#2F2E41"/>
<path d="M208.075 424.138L207.627 330.416L201.093 271.484L188.912 323.309L188.889 323.352L144.747 403.291L127.571 392.436L127.665 392.157C128.715 389.042 153.449 315.897 160.097 315.897C160.678 315.948 161.259 315.821 161.792 315.529C162.325 315.237 162.793 314.788 163.156 314.22C165.107 310.97 163.518 304.073 163.502 304.004C161.598 294.159 166.384 290.807 167.337 290.247L169.9 224.237L170.166 224.26L239.66 230.34L236.745 312.871L230.473 421.002L230.258 421.033L208.075 424.138Z" fill="#2F2E41"/>
<path d="M240.722 244.967L240.422 244.937L165.682 237.422L165.867 206.574L169.525 126.029L169.545 125.973L184.443 85.6288L195.003 79.6638L210.411 78.6523L210.448 78.6641L224.509 83.0097L239.136 213.991L240.722 244.967Z" fill="white"/>
<path d="M212.825 68.3126C222.361 61.8099 225.865 46.8952 220.653 34.9997C215.44 23.1042 203.483 18.7324 193.947 25.2351C184.411 31.7378 180.906 46.6525 186.119 58.548C191.332 70.4435 203.289 74.8153 212.825 68.3126Z" fill="#9F616A"/>
<path d="M183.596 52.9358V43.3717C183.596 43.3717 177.413 34.2879 184.214 31.9997C184.214 31.9997 186.069 9.1174 202.145 19.7958C202.145 19.7958 224.404 15.2193 221.931 31.2369C221.931 31.2369 227.495 27.0553 225.64 37.7337L222.053 54.9347C222.053 54.9347 223.786 43.5722 218.221 42.0466L215.129 39.7584C215.129 39.7584 206.473 50.4368 193.489 37.4702C193.489 37.4702 187.924 35.8134 188.542 42.6781C189.161 49.5428 183.596 52.9358 183.596 52.9358Z" fill="#2F2E41"/>
<path d="M201.337 221.931C201.35 220.506 201.111 219.095 200.639 217.798C200.168 216.5 199.473 215.347 198.605 214.421C197.738 213.494 196.718 212.816 195.617 212.434C194.517 212.053 193.362 211.977 192.236 212.212L182.768 193.328L172.165 197.706L185.836 224.139C186.278 226.474 187.391 228.526 188.964 229.905C190.538 231.285 192.462 231.896 194.373 231.624C196.284 231.352 198.048 230.215 199.332 228.428C200.615 226.642 201.329 224.33 201.337 221.931Z" fill="#9F616A"/>
<path d="M176.884 215.978L159.755 172.598L159.77 172.493C159.839 172.012 166.734 124.257 172.007 106.703C177.314 89.0385 184.578 85.4918 184.884 85.3495L185.038 85.2783L191.551 93.0715L182.529 168.192L192.254 204.422L176.884 215.978Z" fill="white"/>
<path d="M600 0H566.835V41.3705H600V0Z" fill="#F1F1F1"/>
<path d="M340.449 160.985H307.284V202.356H340.449V160.985Z" fill="#F1F1F1"/>
<path d="M325.899 184.227H588.099V18.6475H325.899V184.227Z" fill="white"/>
<path d="M590.262 186.925H323.736V15.9492H590.262V186.925ZM328.062 181.529H585.936V21.3454H328.062V181.529Z" fill="#E5E5E5"/>
<path d="M559.105 76.7295H357.371V85.0748H559.105V76.7295Z" fill="#E5E5E5"/>
<path d="M559.105 96.9678H357.371V105.313H559.105V96.9678Z" fill="#E5E5E5"/>
<path d="M559.105 126.851H521.614V134.093H559.105V126.851Z" fill="white"/>
<path d="M275.413 449.964H0.720975C0.529761 449.964 0.346377 449.869 0.211168 449.7C0.0759591 449.532 0 449.303 0 449.064C0 448.826 0.0759591 448.597 0.211168 448.428C0.346377 448.26 0.529761 448.165 0.720975 448.165H275.413C275.604 448.165 275.787 448.26 275.922 448.428C276.058 448.597 276.134 448.826 276.134 449.064C276.134 449.303 276.058 449.532 275.922 449.7C275.787 449.869 275.604 449.964 275.413 449.964Z" fill="#5F1E7E"/>
</g>
<defs>
<clipPath id="clip0_159_1573">
<rect width="600" height="450" fill="white"/>
</clipPath>
</defs>
</svg>
