<svg width="600" height="450" viewBox="0 0 600 450" fill="none" xmlns="http://www.w3.org/2000/svg">
<g clip-path="url(#clip0_154_1468)">
<path d="M15.8867 449.007C15.8867 449.558 16.3098 450 16.8367 450H599.05C599.577 450 600 449.558 600 449.007C600 448.457 599.577 448.015 599.05 448.015H16.8367C16.3098 448.015 15.8867 448.457 15.8867 449.007Z" fill="#5F1E7E"/>
<path d="M202.32 79.3778H15.5913C8.47018 79.3778 2.67432 73.3211 2.67432 65.8796C2.67432 58.438 8.47018 52.3813 15.5913 52.3813H202.32C209.441 52.3813 215.237 58.438 215.237 65.8796C215.237 73.3211 209.441 79.3778 202.32 79.3778ZM15.5913 54.0499C9.34834 54.0499 4.27097 59.3557 4.27097 65.8796C4.27097 72.4034 9.34834 77.7093 15.5913 77.7093H202.32C208.563 77.7093 213.641 72.4034 213.641 65.8796C213.641 59.3557 208.563 54.0499 202.32 54.0499H15.5913Z" fill="#DFDFE0"/>
<path d="M202.321 237.339H15.5915C8.68598 237.339 3.07373 231.474 3.07373 224.258C3.07373 217.042 8.68598 211.177 15.5915 211.177H202.321C209.226 211.177 214.838 217.042 214.838 224.258C214.838 231.474 209.226 237.339 202.321 237.339Z" fill="#5F1E7E"/>
<path d="M141.129 26.1622H12.5178C5.61225 26.1622 0 20.2974 0 13.0811C0 5.8648 5.61225 0 12.5178 0H141.129C148.034 0 153.646 5.8648 153.646 13.0811C153.646 20.2974 148.034 26.1622 141.129 26.1622Z" fill="#DFDFE0"/>
<path d="M202.32 132.168H15.5913C8.47018 132.168 2.67432 126.111 2.67432 118.67C2.67432 111.228 8.47018 105.171 15.5913 105.171H202.32C209.441 105.171 215.237 111.228 215.237 118.67C215.237 126.111 209.441 132.168 202.32 132.168ZM15.5913 106.84C9.34834 106.84 4.27097 112.146 4.27097 118.67C4.27097 125.193 9.34834 130.499 15.5913 130.499H202.32C208.563 130.499 213.641 125.193 213.641 118.67C213.641 112.146 208.563 106.84 202.32 106.84H15.5913Z" fill="#DFDFE0"/>
<path d="M202.32 184.966H15.5913C8.47018 184.966 2.67432 178.909 2.67432 171.468C2.67432 164.026 8.47018 157.97 15.5913 157.97H202.32C209.441 157.97 215.237 164.026 215.237 171.468C215.237 178.909 209.441 184.966 202.32 184.966ZM15.5913 159.638C9.34834 159.638 4.27097 164.944 4.27097 171.468C4.27097 177.992 9.34834 183.298 15.5913 183.298H202.32C208.563 183.298 213.641 177.992 213.641 171.468C213.641 164.944 208.563 159.638 202.32 159.638H15.5913Z" fill="#DFDFE0"/>
<path d="M58.1103 42.6875H9.1727C8.0043 42.6875 7.05713 43.6754 7.05713 44.8941C7.05713 46.1128 8.0043 47.1007 9.1727 47.1007H58.1103C59.2787 47.1007 60.2258 46.1128 60.2258 44.8941C60.2258 43.6754 59.2787 42.6875 58.1103 42.6875Z" fill="#DFDFE0"/>
<path d="M58.1103 96.729H9.1727C8.0043 96.729 7.05713 97.7169 7.05713 98.9356C7.05713 100.154 8.0043 101.142 9.1727 101.142H58.1103C59.2787 101.142 60.2258 100.154 60.2258 98.9356C60.2258 97.7169 59.2787 96.729 58.1103 96.729Z" fill="#DFDFE0"/>
<path d="M58.1103 150.779H9.1727C8.0043 150.779 7.05713 151.767 7.05713 152.985C7.05713 154.204 8.0043 155.192 9.1727 155.192H58.1103C59.2787 155.192 60.2258 154.204 60.2258 152.985C60.2258 151.767 59.2787 150.779 58.1103 150.779Z" fill="#DFDFE0"/>
<path d="M356.917 110.335L339.066 116.475V89.6211H355.264L356.917 110.335Z" fill="#9F616A"/>
<path d="M341.277 97.0541C351.101 97.0541 359.064 88.7326 359.064 78.4675C359.064 68.2024 351.101 59.8809 341.277 59.8809C331.454 59.8809 323.491 68.2024 323.491 78.4675C323.491 88.7326 331.454 97.0541 341.277 97.0541Z" fill="#9F616A"/>
<path d="M346.163 76.6238C343.186 76.532 341.23 73.387 340.072 70.5172C338.915 67.6475 337.725 64.3523 334.963 63.1677C332.704 62.2 328.72 68.7487 326.94 67.0051C325.08 65.1865 326.892 55.8515 328.864 54.1747C330.836 52.4979 333.534 52.1725 336.073 52.0474C342.268 51.7471 348.503 52.2726 354.578 53.5991C358.338 54.4166 362.202 55.6513 364.916 58.4876C368.349 62.0915 369.227 67.5223 369.475 72.6028C369.73 77.8001 369.443 83.2392 367.024 87.7858C364.605 92.3323 359.543 95.6859 354.69 94.5263C354.203 91.7734 354.698 88.9454 354.889 86.1423C355.073 83.3477 354.881 80.3278 353.245 78.1004C351.608 75.873 348.119 74.9887 346.219 76.9658" fill="#2F2E43"/>
<path d="M368.045 83.0639C369.826 81.7041 371.957 80.5612 374.144 80.8448C376.507 81.1452 378.511 83.1807 379.118 85.5916C379.725 88.0025 379.046 90.6554 377.577 92.6242C376.116 94.5929 373.937 95.8943 371.638 96.545C370.305 96.9204 368.844 97.0789 367.574 96.5117C365.706 95.6691 364.693 93.1747 365.427 91.1893" fill="#2F2E43"/>
<path d="M299.98 257.943C298.791 264.05 300.97 269.631 304.834 270.407C308.698 271.183 312.793 266.853 313.975 260.746C314.478 258.31 314.398 255.791 313.743 253.388L328.457 157.661L310.055 154.04L302.95 251.228C301.441 253.197 300.427 255.499 299.98 257.952V257.943Z" fill="#9F616A"/>
<path d="M338.874 104.153H326.317C317.439 105.563 315.028 110.51 313.009 119.653C309.927 133.602 305.991 152.172 306.774 152.447C308.027 152.881 329.406 163.392 340.303 160.989L338.874 104.153Z" fill="#DFDFE0"/>
<path d="M351.017 409.073H334.3V433.858H351.017V409.073Z" fill="#9F616A"/>
<path d="M318.022 448.858C316.266 448.858 314.701 448.816 313.52 448.699C309.081 448.274 304.842 444.845 302.71 442.843C301.752 441.942 301.449 440.507 301.944 439.272C302.303 438.388 303.014 437.721 303.9 437.462L315.635 433.958L334.636 420.56L334.851 420.96C334.931 421.111 336.799 424.623 337.422 426.992C337.661 427.893 337.597 428.644 337.238 429.228C336.991 429.628 336.639 429.862 336.36 429.995C336.703 430.371 337.781 431.138 341.102 431.689C345.948 432.49 346.97 427.242 347.01 427.026L347.042 426.85L347.185 426.75C349.493 425.198 350.914 424.489 351.401 424.64C351.704 424.731 352.215 424.898 353.596 439.189C353.732 439.639 354.698 442.926 354.043 446.072C353.333 449.492 339.026 448.316 336.16 448.049C336.081 448.057 325.367 448.858 318.03 448.858H318.022Z" fill="#2F2E43"/>
<path d="M398.618 389.6L384.434 398.844L396.985 419.874L411.169 410.63L398.618 389.6Z" fill="#9F616A"/>
<path d="M379.781 445.462C377.817 445.462 376.013 445.211 374.728 444.978C373.466 444.744 372.476 443.693 372.269 442.375C372.125 441.424 372.389 440.465 373.011 439.756L381.194 430.295L390.535 408.422L390.918 408.639C391.061 408.722 394.422 410.666 396.155 412.334C396.817 412.968 397.145 413.644 397.129 414.337C397.121 414.82 396.945 415.204 396.769 415.48C397.248 415.613 398.55 415.663 401.647 414.295C406.166 412.301 404.378 407.279 404.298 407.07L404.234 406.904L404.306 406.745C405.479 404.151 406.317 402.766 406.812 402.624C407.124 402.532 407.635 402.39 416.041 413.761C416.384 414.061 418.867 416.322 419.905 419.35C421.031 422.646 408.297 429.561 405.735 430.913C405.655 430.979 392.331 441.099 386.854 443.977C384.683 445.12 382.112 445.47 379.773 445.47L379.781 445.462Z" fill="#2F2E43"/>
<path d="M363.328 201.808H316.522L312.274 247.307L330.86 415.421H354.753L345.197 318.325L383.956 405.986L405.192 390.452L374.927 308.614C374.927 308.614 385.737 237.321 377.242 219.561C368.748 201.808 363.328 201.808 363.328 201.808Z" fill="#2F2E43"/>
<path d="M386.615 204.578H312.274L334.58 104.153H366.968L386.615 204.578Z" fill="#DFDFE0"/>
<path d="M393.305 257.943C394.495 264.05 392.315 269.631 388.451 270.407C384.587 271.183 380.492 266.853 379.31 260.746C378.807 258.31 378.887 255.791 379.542 253.388L364.829 157.661L383.23 154.04L390.335 251.228C391.844 253.197 392.858 255.499 393.305 257.952V257.943Z" fill="#9F616A"/>
<path d="M354.41 104.153H366.968C375.846 105.563 378.257 110.51 380.276 119.653C383.358 133.602 387.294 152.172 386.511 152.447C385.258 152.881 363.879 163.392 352.981 160.989L354.41 104.153Z" fill="#DFDFE0"/>
</g>
<defs>
<clipPath id="clip0_154_1468">
<rect width="600" height="450" fill="white"/>
</clipPath>
</defs>
</svg>
